HIERARCHY
ROOT SimulationBone
{
	OFFSET 0.000000 0.000000 0.000000
	CHANNELS 6 Xposition Yposition Zposition Zrotation Yrotation Xrotation 
	JOINT Hips
	{
		OFFSET 0.000000 0.000000 0.000000
		CHANNELS 6 Xposition Yposition Zposition Zrotation Yrotation Xrotation 
		JOINT LeftUpLeg
		{
			OFFSET 0.103454 1.857841 10.548504
			CHANNELS 3 Zrotation Yrotation Xrotation
			JOINT LeftLeg
			{
				OFFSET 43.499992 -0.000061 0.000000
				CHANNELS 3 Zrotation Yrotation Xrotation
				JOINT LeftFoot
				{
					OFFSET 42.372196 0.000008 -0.000002
					CHANNELS 3 Zrotation Yrotation Xrotation
					JOINT LeftToe
					{
						OFFSET 17.300022 0.000011 0.000012
						CHANNELS 3 Zrotation Yrotation Xrotation
						End Site
						{
							OFFSET 0.000000 0.000000 0.000000
						}
					}
				}
			}
		}
		JOINT RightUpLeg
		{
			OFFSET 0.103458 1.857820 -10.548491
			CHANNELS 3 Zrotation Yrotation Xrotation
			JOINT RightLeg
			{
				OFFSET 43.500046 0.000015 0.000006
				CHANNELS 3 Zrotation Yrotation Xrotation
				JOINT RightFoot
				{
					OFFSET 42.372269 -0.000046 0.000017
					CHANNELS 3 Zrotation Yrotation Xrotation
					JOINT RightToe
					{
						OFFSET 17.300032 0.000011 0.000015
						CHANNELS 3 Zrotation Yrotation Xrotation
						End Site
						{
							OFFSET 0.000000 0.000000 0.000000
						}
					}
				}
			}
		}
		JOINT Spine
		{
			OFFSET 6.901962 -2.603707 -0.000004
			CHANNELS 3 Zrotation Yrotation Xrotation
			JOINT Spine1
			{
				OFFSET 12.588104 -0.000004 -0.000001
				CHANNELS 3 Zrotation Yrotation Xrotation
				JOINT Spine2
				{
					OFFSET 12.343199 -0.000026 0.000003
					CHANNELS 3 Zrotation Yrotation Xrotation
					JOINT Neck
					{
						OFFSET 25.832890 0.000004 -0.000006
						CHANNELS 3 Zrotation Yrotation Xrotation
						JOINT Head
						{
							OFFSET 11.766623 0.000031 0.000004
							CHANNELS 3 Zrotation Yrotation Xrotation
							End Site
							{
								OFFSET 0.000000 0.000000 0.000000
							}
						}
					}
					JOINT LeftShoulder
					{
						OFFSET 19.745897 -1.480345 6.000100
						CHANNELS 3 Zrotation Yrotation Xrotation
						JOINT LeftArm
						{
							OFFSET 11.284126 0.000003 -0.000015
							CHANNELS 3 Zrotation Yrotation Xrotation
							JOINT LeftForeArm
							{
								OFFSET 33.000057 -0.000023 0.000027
								CHANNELS 3 Zrotation Yrotation Xrotation
								JOINT LeftHand
								{
									OFFSET 25.199987 0.000051 0.000021
									CHANNELS 3 Zrotation Yrotation Xrotation
									End Site
									{
										OFFSET 0.000000 0.000000 0.000000
									}
								}
							}
						}
					}
					JOINT RightShoulder
					{
						OFFSET 19.746086 -1.480362 -6.000076
						CHANNELS 3 Zrotation Yrotation Xrotation
						JOINT RightArm
						{
							OFFSET 11.284140 0.000004 -0.000015
							CHANNELS 3 Zrotation Yrotation Xrotation
							JOINT RightForeArm
							{
								OFFSET 33.000084 -0.000023 0.000011
								CHANNELS 3 Zrotation Yrotation Xrotation
								JOINT RightHand
								{
									OFFSET 25.199789 0.000148 0.000422
									CHANNELS 3 Zrotation Yrotation Xrotation
									End Site
									{
										OFFSET 0.000000 0.000000 0.000000
									}
								}
							}
						}
					}
				}
			}
		}
	}
}
MOTION
Frames: 13
Frame Time: 0.016667
-325.396368 0.000000 138.581348 0.000000 88.999672 0.000000 2.105192 87.296768 0.533709 98.669727 3.910929 -176.720936 -178.263347 -10.432203 178.217148 -62.852124 0.974621 -3.106423 63.537246 -0.984170 -7.863696 21.454560 0.003092 -0.000003 163.443367 -2.195991 -171.632108 -30.203027 4.021245 5.774686 73.678882 -5.053814 -2.795497 21.454560 -0.003123 -0.000021 8.462039 1.905348 -0.704381 6.893315 3.849059 -1.294979 6.574526 3.841301 -1.318235 10.570435 0.422349 -4.830560 -14.122343 10.582004 -8.569951 -166.157026 -79.967705 -15.620774 -6.400631 66.838760 24.894529 -30.517650 -14.032556 1.177589 6.180547 -6.616033 35.461921 -153.967039 68.346790 28.239927 8.921055 -59.117642 -31.777966 -28.776136 13.863912 -1.159795 6.704505 0.310516 -13.095934 
-325.096363 0.000000 137.170284 0.000000 89.059913 0.000000 2.115264 87.612447 0.572815 98.775526 3.903899 -176.536018 179.087901 -10.493855 178.683988 -66.709681 1.224404 -3.570980 59.569335 -1.222883 -8.472354 21.454558 0.003091 -0.000002 164.842351 -2.459318 -171.624658 -29.621892 4.103986 5.890891 74.446303 -5.113187 -2.830414 21.454558 -0.003114 -0.000019 8.499735 1.921829 -0.558367 6.973657 3.873642 -1.000707 6.654813 3.867657 -1.024118 10.451562 0.918218 -4.279262 -15.000502 10.198517 -7.914923 -165.987183 -79.895688 -15.793622 -5.487580 66.976318 25.565616 -30.352841 -14.053768 1.175615 5.654992 -7.181283 34.828502 -153.873377 68.332186 28.337120 7.804481 -59.038274 -31.269945 -28.731928 13.725632 -1.150143 6.650166 0.380378 -13.336556 
-324.803208 0.000000 135.772810 0.000000 89.147959 0.000000 2.138278 87.943314 0.573478 98.931977 3.780894 -176.621378 176.680847 -10.337016 178.864117 -69.823377 1.400553 -3.811594 56.772279 -1.225823 -8.369010 21.454558 0.003092 -0.000002 166.374884 -2.599506 -171.885604 -28.876171 4.292943 5.981665 75.107430 -5.171663 -2.906229 21.454557 -0.003104 -0.000017 8.558978 1.894339 -0.372045 7.098582 3.807795 -0.627755 6.779728 3.804065 -0.650770 10.369226 1.445250 -3.644969 -16.049787 9.877408 -7.201937 -165.380885 -79.835514 -16.409802 -4.711967 67.085671 26.156767 -30.319099 -14.057110 1.175289 4.988547 -7.701451 34.265432 -153.930060 68.307517 28.279108 6.441403 -58.883899 -30.712904 -28.721122 13.597129 -1.141654 6.580187 0.496018 -13.393268 
-324.516116 0.000000 134.387071 0.000000 89.261849 0.000000 2.184154 88.283620 0.532936 99.107172 3.519200 -176.944071 174.407234 -10.031028 178.673311 -72.447632 1.630107 -3.609538 56.475693 -1.252196 -8.043276 21.454564 0.003095 -0.000006 167.970159 -2.595168 -172.248910 -28.059594 4.460314 5.988628 75.702171 -5.176245 -2.994160 21.454557 -0.003109 -0.000017 8.627749 1.821118 -0.166625 7.242829 3.648982 -0.219267 6.924027 3.647720 -0.241324 10.361828 1.886691 -2.942545 -17.240687 9.727504 -6.494256 -164.285788 -79.739697 -17.523022 -4.052775 67.161641 26.690972 -30.370160 -14.064282 1.176842 4.303500 -8.143492 33.760944 -154.273249 68.342015 27.923564 4.893283 -58.679606 -30.126547 -28.727718 13.474964 -1.133919 6.550594 0.609906 -13.271642 
-324.234958 0.000000 133.010948 0.000000 89.394119 0.000000 2.233490 88.605103 0.465184 99.232576 3.208309 -177.465776 172.205598 -9.691618 178.235275 -74.534186 1.833951 -3.184808 57.864112 -1.295533 -7.666384 21.454568 0.003097 -0.000008 169.505679 -2.509606 -172.646309 -27.242214 4.608283 5.904461 76.260366 -5.125090 -3.107631 21.454558 -0.003114 -0.000018 8.685725 1.729484 0.047990 7.365045 3.452322 0.205848 7.046325 3.453629 0.184975 10.417533 2.156692 -2.181559 -18.444531 9.708083 -5.786112 -162.912427 -79.504359 -18.920710 -3.446076 67.166670 27.243964 -30.511752 -14.110906 1.182520 3.828417 -8.545706 33.318130 -154.892939 68.515701 27.279182 3.225012 -58.458003 -29.490570 -28.723902 13.348288 -1.125712 6.526560 0.751044 -13.162487 
-323.959447 0.000000 131.641625 0.000000 89.534011 0.000000 2.265535 88.880213 0.386106 99.257987 2.941052 -178.142028 170.048023 -9.411610 177.713757 -75.984679 1.885586 -2.802989 59.742230 -1.279680 -7.302575 21.454561 0.003096 -0.000002 170.886177 -2.412337 -173.041261 -26.479929 4.766146 5.735813 76.808381 -5.027681 -3.266239 21.454558 -0.003105 -0.000017 8.718629 1.647177 0.265435 7.436535 3.273847 0.636247 7.117900 3.277759 0.616446 10.509551 2.206222 -1.380091 -19.540059 9.740502 -5.062056 -161.538086 -79.066181 -20.322794 -2.841189 67.089513 27.845872 -30.743073 -14.216135 1.193740 3.722252 -8.951208 32.936535 -155.741266 68.882614 26.394860 1.464216 -58.245103 -28.758090 -28.682563 13.205645 -1.115808 6.476802 0.941517 -13.228359 
-323.688734 0.000000 130.275401 0.000000 89.670895 0.000000 2.285386 89.106773 0.304128 99.248777 2.719733 -178.920880 167.990197 -9.183501 177.204313 -76.791522 1.775228 -2.514414 61.534191 -1.185996 -6.896505 21.454550 0.003093 0.000004 172.172991 -2.305096 -173.411277 -25.796399 4.942997 5.491036 77.368666 -4.889405 -3.470822 21.454558 -0.003098 -0.000016 8.743913 1.574016 0.481708 7.492210 3.113539 1.064524 7.173668 3.120043 1.045688 10.608351 2.101419 -0.592301 -20.530031 9.749977 -4.344355 -160.255388 -78.571014 -21.634219 -2.266388 67.060700 28.308548 -30.984814 -14.319440 1.205298 3.755412 -9.361986 32.593248 -156.713990 69.384986 25.380360 -0.500103 -58.032454 -27.831183 -28.591108 13.040590 -1.103480 6.478187 1.099520 -13.332299 
-323.420767 0.000000 128.908939 0.000000 89.796240 0.000000 2.301825 89.286980 0.224444 99.279121 2.533833 -179.746028 166.095159 -8.977294 176.779576 -76.971888 1.528349 -2.338818 62.886036 -1.011401 -6.409590 21.454543 0.003092 0.000004 173.445910 -2.179165 -173.727034 -25.204676 5.139182 5.177809 77.960476 -4.713261 -3.715902 21.454558 -0.003111 -0.000017 8.781583 1.505295 0.692223 7.572005 2.962092 1.481767 7.253573 2.971120 1.463849 10.688392 1.925008 0.131125 -21.441391 9.688572 -3.661400 -159.072321 -78.171348 -22.844539 -1.750274 67.201026 28.462489 -31.159984 -14.362189 1.211523 3.678926 -9.762423 32.275600 -157.698412 69.941419 24.354171 -2.777708 -57.789304 -26.641778 -28.449203 12.856390 -1.088975 6.594563 1.143205 -13.331057 
-323.153675 0.000000 127.540923 0.000000 89.906331 0.000000 2.312472 89.415154 0.150707 99.342446 2.403320 179.454867 164.370852 -8.786104 176.496405 -76.556031 1.178205 -2.368996 63.709442 -0.749388 -5.986131 21.454543 0.003092 -0.000000 174.703426 -2.055700 -173.923035 -24.707369 5.341690 4.799731 78.594303 -4.496919 -3.989585 21.454558 -0.003121 -0.000018 8.830390 1.446730 0.887991 7.673394 2.831432 1.870343 7.355070 2.842809 1.853217 10.734651 1.708528 0.788163 -22.270110 9.611505 -3.033950 -158.132114 -77.839385 -23.807681 -1.291712 67.443983 28.382953 -31.280278 -14.372741 1.214659 3.556072 -10.094203 32.020442 -158.660048 70.479414 23.353273 -5.347297 -57.450406 -25.279379 -28.290885 12.690204 -1.075474 6.724609 1.093162 -13.357699 
-322.886679 0.000000 126.171024 0.000000 90.009770 0.000000 2.313725 89.491304 0.085667 99.411890 2.337877 178.749134 162.814476 -8.591848 176.406608 -75.560813 0.756052 -2.701742 64.037786 -0.391300 -5.805172 21.454546 0.003093 -0.000003 175.935317 -1.955845 -173.970174 -24.279811 5.540877 4.380686 79.266304 -4.251171 -4.272430 21.454556 -0.003109 -0.000015 8.883600 1.403230 1.058899 7.782950 2.732126 2.210238 7.464717 2.745559 2.193709 10.747607 1.471113 1.385877 -23.017680 9.580126 -2.479662 -157.564596 -77.516327 -24.391817 -0.915298 67.694199 28.182343 -31.362137 -14.394619 1.218140 3.524823 -10.292854 31.840759 -159.585679 70.943109 22.391988 -8.128912 -56.962840 -23.857339 -28.157351 12.579277 -1.065972 6.771045 0.992101 -13.563397 
-322.618989 0.000000 124.797641 0.000000 90.079188 0.000000 2.305108 89.546089 0.025563 99.464504 2.277683 178.176192 161.434089 -8.311404 176.555172 -73.941202 0.263716 -3.373036 64.131090 0.059905 -5.994827 21.454551 0.003092 -0.000003 177.175817 -1.858899 -174.016595 -23.798853 5.754731 4.031091 79.924468 -4.044817 -4.522595 21.454555 -0.003092 -0.000013 8.933573 1.365844 1.194638 7.885111 2.647185 2.480090 7.566960 2.662250 2.464066 10.779051 1.232905 1.918513 -23.743599 9.579340 -2.004225 -157.257932 -77.191405 -24.710557 -0.757490 67.931583 27.898692 -31.351858 -14.445177 1.220787 3.711726 -10.317581 31.611668 -160.505005 71.334206 21.439514 -10.977956 -56.342000 -22.383852 -28.084497 12.527211 -1.061267 6.817965 0.866923 -13.895843 
-322.351214 0.000000 123.418370 0.000000 90.133347 0.000000 2.287328 89.603927 -0.032227 99.491717 2.171491 177.762719 160.244566 -7.874232 176.950042 -71.660917 -0.271954 -4.383778 64.252288 0.614260 -6.568099 21.454555 0.003087 -0.000000 178.462462 -1.743584 -174.192034 -23.160698 5.998009 3.842615 80.524479 -3.935713 -4.707534 21.454555 -0.003092 -0.000014 8.976055 1.326449 1.289935 7.971145 2.560958 2.668718 7.653074 2.577160 2.653202 10.864290 1.015672 2.376570 -24.491304 9.573540 -1.605210 -157.086574 -76.871794 -24.891391 -0.956922 68.160010 27.536138 -31.193484 -14.531453 1.220838 4.213406 -10.132444 31.193211 -161.425098 71.665536 20.488251 -13.767045 -55.622983 -20.831478 -28.100808 12.522507 -1.061194 6.961770 0.753358 -14.268579 
-322.086117 0.000000 122.032543 0.000000 90.159602 0.000000 2.266279 89.633636 -0.082478 99.532374 2.074293 177.504798 159.270395 -7.327401 177.470909 -68.788849 -0.726521 -5.640705 64.459691 1.355140 -7.137606 21.454557 0.003084 0.000002 179.804211 -1.654115 -174.381164 -22.439929 6.246073 3.740524 81.097355 -3.875210 -4.846930 21.454557 -0.003101 -0.000016 9.021446 1.293958 1.359906 8.062517 2.490068 2.807202 7.744512 2.507108 2.792107 10.920480 0.850547 2.750131 -25.180160 9.517425 -1.262192 -157.066577 -76.593866 -24.917105 -1.544584 68.405824 27.042682 -30.892347 -14.645401 1.219460 5.017676 -9.700431 30.519538 -162.191037 71.941197 19.697088 -16.470877 -54.848220 -19.170516 -28.210272 12.526923 -1.063494 7.167735 0.735464 -14.660251 
